inDegrees=yes
name=ik_S50_A12_T01
DataType=double
version=3
OpenSimVersion=4.3-2021-08-27-4bc7ad9
endheader
time	pelvis_tilt	pelvis_list	pelvis_rotation	pelvis_tx	pelvis_ty	pelvis_tz	hip_flexion_r	hip_adduction_r	hip_rotation_r	knee_angle_r	knee_angle_r_beta	ankle_angle_r	subtalar_angle_r	mtp_angle_r	hip_flexion_l	hip_adduction_l	hip_rotation_l	knee_angle_l	knee_angle_l_beta	ankle_angle_l	subtalar_angle_l	mtp_angle_l	lumbar_extension	lumbar_bending	lumbar_rotation	arm_flex_r	arm_add_r	arm_rot_r	elbow_flex_r	pro_sup_r	wrist_flex_r	wrist_dev_r	arm_flex_l	arm_add_l	arm_rot_l	elbow_flex_l	pro_sup_l	wrist_flex_l	wrist_dev_l
5.659999999999967	-2.12822357194209	1.001736317518461	29.34907385663698	0	0.9399999999999999	0	20.93484925879063	-7.739643548305557	-6.61775805567443	22.83305606193572	0.3985120065732285	0	0	0	20.93484925879063	-7.739643548305557	-6.61775805567443	22.83305606193572	0.3985120065732285	0	0	0	-0.6438353548317495	0.9348136607985148	14.02395443790045	8.16684477540691	-8.320640867117119	-7.478090912106223	6.61826727322727	130.9406550794891	0	0	82.18283470673499	-16.04459047207156	16.35547443150141	28.67702882698686	71.50808049115933	0	0
5.679999999999967	-2.178555367478885	1.053625786068806	29.16660225901466	0	0.9399999999999999	0	20.94699729186864	-7.743230752853533	-6.621207343289735	22.84595482207428	0.3987371324070714	0	0	0	20.94699729186864	-7.743230752853533	-6.621207343289735	22.84595482207428	0.3987371324070714	0	0	0	-0.6649093423339099	1.006406381046341	14.09718587145382	8.196772190915441	-8.409434712692033	-7.436892311399555	6.563233935603643	130.9261131836224	0	0	83.37643630591542	-15.89438578300771	17.13666574293997	29.20902387718801	69.97757316584135	0	0
5.699999999999966	-2.213294283566385	1.082982812097405	29.02023998890137	0	0.9399999999999999	0	20.95859285661407	-7.746650471580018	-6.624497840458138	22.85826939776956	0.3989520622989401	0	0	0	20.95859285661407	-7.746650471580018	-6.624497840458138	22.85826939776956	0.3989520622989401	0	0	0	-0.6836586507115662	1.050257791192981	14.18512266547596	8.230671510571151	-8.465188680356633	-7.453988071109094	6.526806450237111	130.9252321615542	0	0	84.54203597432628	-15.68830756684792	17.87204826757943	29.73473020964844	68.6578967650471	0	0
5.719999999999966	-2.247957848845446	1.11348445247499	28.87610069468291	0	0.9399999999999999	0	20.97035379824675	-7.750116675083	-6.627834498806988	22.87075651997129	0.3991700036954594	0	0	0	20.97035379824675	-7.750116675083	-6.627834498806988	22.87075651997129	0.3991700036954594	0	0	0	-0.7017822835437412	1.095124787344051	14.26677967232951	8.278268463762231	-8.508066394133129	-7.467734357953757	6.471470053346374	130.9271019976309	0	0	85.69021830479382	-15.46383272743896	18.53246954799852	30.14948097457216	67.40343082544396	0	0
5.739999999999966	-2.266762305106742	1.146882997398436	28.75805958210204	0	0.9399999999999999	0	20.98375531183582	-7.754033621387176	-6.6316185876051	22.88506581670951	0.399419748037186	0	0	0	20.98375531183582	-7.754033621387176	-6.6316185876051	22.88506581670951	0.399419748037186	0	0	0	-0.7031825136766409	1.133277798521141	14.31834120680344	8.265692362859419	-8.55704081808963	-7.381115022318611	6.458195725213868	130.8886898473989	0	0	85.68515155081464	-15.61165355901399	18.45895178440039	31.56022930264093	66.76445260769231	0	0
5.759999999999965	-2.272486997577211	1.142170219658065	28.58155788551685	0	0.9399999999999999	0	20.99596494841405	-7.757622822737859	-6.635078514901672	22.89803323852971	0.3996460722434435	0	0	0	20.99596494841405	-7.757622822737859	-6.635078514901672	22.89803323852971	0.3996460722434435	0	0	0	-0.7140262695936185	1.132361238698328	14.50496182291504	8.309131303844143	-8.533009886751001	-7.482564448477778	6.423037130230356	130.9039563248514	0	0	87.86033844417396	-14.98202912285696	19.91386706575274	30.91392523660196	65.24046064974843	0	0
5.779999999999965	-2.37056648184786	1.202747508902155	28.37631149426547	0	0.9399999999999999	0	21.00752949713222	-7.761023495780877	-6.638356755606753	22.91030370072348	0.3998602322094663	0	0	0	21.00752949713222	-7.761023495780877	-6.638356755606753	22.91030370072348	0.3998602322094663	0	0	0	-0.7715044271798741	1.232488049037294	14.5067547948617	8.453848878274611	-8.682949615224228	-7.326464306936296	6.358239459624906	130.9039131122916	0	0	88.86638760794311	-14.91628297529667	20.29490992433456	31.20545081803068	64.36881496939249	0	0
5.799999999999964	-2.377535845912291	1.216469299174722	28.28443083161807	0	0.9399999999999999	0	21.020789718122	-7.764920800473766	-6.642115217293974	22.92436684588384	0.4001056803957005	0	0	0	21.020789718122	-7.764920800473766	-6.642115217293974	22.92436684588384	0.4001056803957005	0	0	0	-0.7728549134251003	1.248507165863177	14.56750427301926	8.554563091204258	-8.660162259690365	-7.364415482680224	6.253226563801166	130.9171805706845	0	0	89.83242295416038	-14.67192752697684	20.74134870668509	31.40988856560717	63.82196976377224	0	0
5.819999999999964	-2.408382022345557	1.230984575668064	28.17237506846986	0	0.9399999999999999	0	21.03158073056954	-7.768085845754995	-6.645170574959803	22.93582081362978	0.4003055898452844	0	0	0	21.03158073056954	-7.768085845754995	-6.645170574959803	22.93582081362978	0.4003055898452844	0	0	0	-0.7944221871309892	1.276244784527202	14.61137409456796	8.640309321764551	-8.678831497740456	-7.336504003593853	6.235654148921048	130.8710426922585	0	0	90.79160099254258	-14.43839496951043	21.12824449051804	31.48616311851836	63.49596552891121	0	0
5.839999999999963	-2.435134199665026	1.25309398376937	28.06667001513544	0	0.9399999999999999	0	21.04263921338578	-7.771327242129234	-6.648300939318081	22.94755615135924	0.4005104101274971	0	0	0	21.04263921338578	-7.771327242129234	-6.648300939318081	22.94755615135924	0.4005104101274971	0	0	0	-0.808663863616929	1.308714596427511	14.64654669069218	8.723058204644115	-8.707821259941369	-7.299057909473315	6.188268413633093	130.8556402362515	0	0	91.65948995271445	-14.22112411258896	21.51786920103977	31.53106496459782	63.21724594632299	0	0
5.859999999999963	-2.459976341417873	1.263944900873598	27.97929127896662	0	0.9399999999999999	0	21.05358703394155	-7.774532743260206	-6.651398477303053	22.9591753298518	0.4007132030485691	0	0	0	21.05358703394155	-7.774532743260206	-6.651398477303053	22.9591753298518	0.4007132030485691	0	0	0	-0.8265929051701568	1.330162696301418	14.68668738883935	8.803882111179494	-8.711590751612336	-7.282211970523306	6.159051733468387	130.8164241392443	0	0	92.48397542877271	-13.99099490419731	21.89836723970412	31.55720629890972	63.0630613541024	0	0
